<?xml version="1.0" encoding="utf-8"?>
<!-- Svg Vector Icons : http://www.onlinewebfonts.com/icon -->
<!DOCTYPE svg PUBLIC "-//W3C//DTD SVG 1.1//EN" "http://www.w3.org/Graphics/SVG/1.1/DTD/svg11.dtd">
<svg version="1.1" xmlns="http://www.w3.org/2000/svg" xmlns:xlink="http://www.w3.org/1999/xlink" x="0px" y="0px" viewBox="0 0 1000 1000" enable-background="new 0 0 1000 1000" xml:space="preserve">
<metadata> Svg Vector Icons : http://www.onlinewebfonts.com/icon </metadata>
<g><g><g><path d="M908.3,456.8L605.4,40.3c-13.8-19-36.1-30.3-59.6-30.3c-15.6,0-30.6,4.9-43.2,14.1c-32.8,23.9-40.1,70-16.2,102.8l271.4,373.2L486.3,873.1c-23.9,32.8-16.6,78.9,16.3,102.8c12.7,9.2,27.7,14.1,43.3,14.1c23.5,0,45.8-11.3,59.5-30.3l302.9-416.3C927.2,517.4,927.2,482.6,908.3,456.8z M885,526.4L582.1,942.7c-8.4,11.6-21.9,18.4-36.2,18.4c-9.5,0-18.6-3-26.3-8.6c-20-14.5-24.4-42.6-9.9-62.5l277.6-381.5c3.7-5.1,3.7-11.9,0-17L509.6,109.9c-14.5-20-10.1-48,9.9-62.5c7.7-5.6,16.8-8.6,26.3-8.6c14.3,0,27.9,6.9,36.3,18.4L885,473.7C896.5,489.5,896.5,510.6,885,526.4z"/><path d="M513.6,456.8L210.7,40.3c-13.8-19-36-30.3-59.6-30.3c-15.6,0-30.6,4.9-43.2,14.1C75.1,47.9,67.8,94,91.6,126.9L363,500.1L91.6,873.1c-23.9,32.8-16.6,78.9,16.3,102.8c12.7,9.2,27.7,14.1,43.3,14.1c23.5,0,45.8-11.3,59.5-30.3l302.9-416.3C532.4,517.4,532.4,482.6,513.6,456.8z M490.3,526.4L187.3,942.7c-8.4,11.5-21.9,18.4-36.2,18.4c-9.5,0-18.6-3-26.3-8.6c-20-14.5-24.4-42.5-9.9-62.5l277.6-381.5c3.7-5.1,3.7-11.9,0-17L114.9,109.9c-14.5-20-10.1-48,9.9-62.6c7.7-5.6,16.8-8.6,26.3-8.6c14.3,0,27.9,6.9,36.2,18.4l302.9,416.5C501.7,489.5,501.7,510.6,490.3,526.4z"/></g></g><g></g><g></g><g></g><g></g><g></g><g></g><g></g><g></g><g></g><g></g><g></g><g></g><g></g><g></g><g></g></g>
</svg>